# xmcd CD database file
#
# Track frame offsets:
#	150
#	46281
#	117384
#	165155
#	198853
#	243733
#
# Disc length: 3806 seconds
#
# Revision: 0
# Processed by: cddbd v1.5.2PL0 Copyright (c) Steve Scherf et al.
# Submitted via: CDex 1.51
#
DISCID=470edc06
DTITLE=Rory Gallagher - Cowtown Ballroom KC, Kansas [CD1)
DYEAR=1974
DGENRE=Blues
TTITLE0=Messin' With The Kid
TTITLE1=Cradle Rock - Just A Little Bit
TTITLE2=I Wonder Who
TTITLE3=Tattoo'd Lady
TTITLE4=Walk On Hot Coals
TTITLE5=A Million Miles Away
EXTD=YEAR: 1974
EXTT0=
EXTT1=
EXTT2=
EXTT3=
EXTT4=
EXTT5=
PLAYORDER=
